<svg xmlns="http://www.w3.org/2000/svg" viewBox="0 0 512 512">
  <defs>
    <linearGradient id="g" x1="0" y1="0" x2="1" y2="1">
      <stop offset="0" stop-color="#0060DF"/>
      <stop offset="1" stop-color="#5E5CE6"/>
    </linearGradient>
  </defs>
  <rect width="512" height="512" rx="96" fill="url(#g)"/>
  <g fill="none" stroke="#fff" stroke-width="28" stroke-linecap="round" stroke-linejoin="round" transform="translate(128 128) scale(10.666)">
    <path d="M20.2 6 3 11l-.9 3.4c-.4 1.5.6 3 2.1 3.4l13.4 4c1.5.4 3-.6 3.4-2.1l2-6.8"/>
    <path d="M6.2 12.5 13 15"/>
    <path d="M16 16 9.2 13.5"/>
    <path d="m8 13-3.3-6.9a1 1 0 0 1 .6-1.3l1.3-.4a1 1 0 0 1 1.3.6L10 8"/>
  </g>
</svg>
